# xmcd
#
# Track frame offsets: 
#        150
#        15693
#        31200
#        45521
#        59827
#        74273
#        88191
#        101757
#        116414
#        132230
#        146604
#        160343
#        177281
#        192844
#        206770
#        221870
#        235963
#        250094
#        264449
#        278161
#        293320
#        306620
#        320729
#        336226
#
# Disc length: 4691 seconds
#
# Revision: 1
# Processed by: cddbd v1.5.2PL0 Copyright (c) Steve Scherf et al.
# Submitted via: ExactAudioCopyFreeDBPlugin 1.0
#
DISCID=75125118
DTITLE=Bessie Smith - Bessie Smith Blues Queen
DYEAR=2011
DGENRE=Blues
TTITLE0=Downhearted Blues
TTITLE1=Tain't Nobody's Business If I Do
TTITLE2=My Sweetie Went Away
TTITLE3=Weeping Willow Blues
TTITLE4=St Louis Blues
TTITLE5=Reckless Blues
TTITLE6=Sobbin' Hearted Blues
TTITLE7=Cold in Hand Blues
TTITLE8=You'd Been a Good Ole Wagon
TTITLE9=Cake Walkin' Babies from Home
TTITLE10=The Yellow Dog Blues
TTITLE11=Nashville Woman's Blues
TTITLE12=Careless Love Blues
TTITLE13=JC Holmes Blues
TTITLE14=I Ain't Goin' to Play Second Fiddle
TTITLE15=Young Woman's Blues
TTITLE16=Muddy Water (A Mississippi Moan)
TTITLE17=Mean Old Bedbug Blues
TTITLE18=Empty Bed Blues (Pt 1)
TTITLE19=Empty Bed Blues (Pt 2)
TTITLE20=Nobody Knows You When You're Down and Out
TTITLE21=Black Mountain Blues
TTITLE22=Do Your Duty
TTITLE23=Gimme a Pigfoot
EXTD=Bessie Smith The Definitive Collection \nDefinitive Records\n2007
EXTD=\nAndorra Spain
EXTT0=
EXTT1=
EXTT2=
EXTT3=
EXTT4=
EXTT5=
EXTT6=
EXTT7=
EXTT8=
EXTT9=
EXTT10=
EXTT11=
EXTT12=
EXTT13=
EXTT14=
EXTT15=
EXTT16=
EXTT17=
EXTT18=
EXTT19=
EXTT20=
EXTT21=
EXTT22=
EXTT23=
PLAYORDER=
